<svg xmlns="http://www.w3.org/2000/svg" version="1.1" xmlns:xlink="http://www.w3.org/1999/xlink" xmlns:svgjs="http://svgjs.dev/svgjs" viewBox="0 0 1422 800"><defs><filter id="uuunion-blur" x="-100%" y="-100%" width="400%" height="400%" color-interpolation-filters="sRGB">
        <feGaussianBlur in="SourceGraphic" stdDeviation="10 6.5" result="blur"></feGaussianBlur>
        <feDropShadow stdDeviation="22.153846153846153" in="blur" dx="18" dy="18" flood-color="#ff48b0" flood-opacity="0.53" x="0%" y="0%" width="100%" height="100%"></feDropShadow>
      </filter><filter id="uuunion-blur2" x="-100%" y="-100%" width="400%" height="400%" color-interpolation-filters="sRGB">
        <feGaussianBlur in="SourceGraphic" stdDeviation="10 6.5" result="blur"></feGaussianBlur>
        <feDropShadow stdDeviation="22.153846153846153" in="blur" dx="-18" dy="-18" flood-color="#ff48b0" flood-opacity="0.53" x="0%" y="0%" width="100%" height="100%"></feDropShadow>
      </filter><linearGradient gradientTransform="rotate(124, 0.5, 0.5)" x1="50%" y1="0%" x2="50%" y2="100%" id="uuunion-grad"><stop stop-color="hsl(37, 91%, 55%)" offset="10%"></stop><stop stop-color="#ff48b0" offset="90%"></stop></linearGradient><linearGradient gradientTransform="rotate(235, 0.5, 0.5)" x1="50%" y1="0%" x2="50%" y2="100%" id="uuunion-grad2"><stop stop-color="hsl(37, 91%, 55%)" offset="25%"></stop><stop stop-color="#ff48b0" offset="100%"></stop></linearGradient><linearGradient gradientTransform="rotate(259, 0.5, 0.5)" x1="50%" y1="0%" x2="50%" y2="100%" id="uuunion-grad3"><stop stop-color="hsl(37, 91%, 55%)" offset="0%"></stop><stop stop-color="#ff48b0" offset="75%"></stop></linearGradient></defs><path d="M-129.39 -85.78Q-116.47 -84.33 -103.54 -82.66 -90.61 -80.87 -77.69 -79.04 -64.76 -77.25 -51.84 -75.6 -38.91 -74.15 -25.98 -72.98 -13.06 -72.15 -0.13 -71.68 12.79 -71.62 25.71 -71.95 38.64 -72.66 51.56 -73.73 64.49 -75.09 77.42 -76.68 90.34 -78.44 103.27 -80.26 116.2 -82.08 129.12 -83.79 142.05 -85.33 154.97 -86.61 167.9 -87.57 180.83 -88.18 193.75 -88.39 206.68 -88.21 219.61 -87.64 232.53 -86.7 245.46 -85.44 258.38 -83.93 271.31 -82.22 284.24 -80.41 297.16 -78.59 310.09 -76.82 323.02 -75.21 335.94 -73.83 348.87 -72.74 361.79 -71.99 374.72 -71.63 387.65 -71.66 400.57 -72.09 413.5 -72.9 426.42 -74.04 439.35 -75.47 452.28 -77.11 465.2 -78.89 478.13 -80.72 491.06 -82.52 503.98 -84.2 516.91 -85.67 529.83 -86.88 542.76 -87.76 555.69 -88.27 568.61 -88.39 581.54 -88.1 594.47 -87.44 607.39 -86.41 620.32 -85.09 633.24 -83.52 646.17 -81.78 659.1 -79.96 672.02 -78.14 684.95 -76.4 697.88 -74.84 710.8 -73.53 723.73 -72.52 736.66 -71.87 749.58 -71.6 762.51 -71.73 775.43 -72.26 788.36 -73.15 801.29 -74.37 814.21 -75.86 827.14 -77.55 840.07 -79.35 852.99 -81.18 865.92 -82.95 878.84 -84.59 891.77 -86 904.7 -87.13 917.62 -87.92 930.55 -88.34 943.48 -88.35 956.4 -87.97 969.33 -87.21 982.25 -86.11 995.18 -84.71 1008.11 -83.09 1021.03 -81.33 1033.96 -79.5 1046.89 -77.69 1059.81 -76 1072.74 -74.49 1085.66 -73.24 1098.59 -72.32 1111.52 -71.76 1124.44 -71.6 1137.37 -71.83 1150.3 -72.45 1163.22 -73.43 1176.15 -74.72 1189.08 -76.27 1202 -77.99 1214.93 -79.8 1227.85 -81.63 1240.78 -83.38 1253.71 -84.96 1266.63 -86.31 1279.56 -87.36 1292.49 -88.06 1305.41 -88.38 1318.34 -88.29 1331.26 -87.82 1344.19 -86.97 1357.12 -85.78 1370.04 -84.33 1382.97 -82.66 1395.9 -80.87 1408.82 -79.04 1421.75 -77.25 1434.68 -75.6 1447.6 -74.15 1460.53 -72.98 1473.45 -72.15 1486.38 -71.68 1499.31 -71.62 1512.23 -71.95 1525.16 -72.66 1528.71 -57.4 1534.47 -42.14 1542.07 -26.88 1551.05 -11.62 1560.85 3.64 1570.86 18.9 1580.45 34.16 1589.03 49.42 1596.07 64.68 1601.12 79.94 1603.88 95.21 1604.17 110.47 1601.98 125.73 1597.44 140.99 1590.83 156.25 1582.56 171.52 1573.15 186.78 1563.19 202.04 1553.29 217.3 1544.06 232.56 1536.09 247.83 1529.87 263.09 1525.78 278.35 1524.07 293.61 1524.87 308.87 1528.11 324.13 1533.59 339.4 1540.97 354.66 1549.8 369.92 1559.53 385.18 1569.54 400.44 1579.22 415.71 1587.97 430.97 1595.24 446.23 1600.58 461.49 1603.65 476.75 1604.28 492.01 1602.41 507.28 1598.17 522.54 1591.81 537.8 1583.74 553.06 1574.45 568.32 1564.52 583.59 1554.57 598.85 1545.23 614.11 1537.06 629.37 1530.58 644.63 1526.19 659.89 1524.16 675.16 1524.62 690.42 1527.54 705.68 1532.74 720.94 1539.9 736.2 1548.57 751.47 1558.2 766.73 1568.22 781.99 1577.98 797.25 1586.88 812.51 1594.38 827.78 1599.99 843.04 1603.39 858.3 1604.34 873.56 1602.8 888.82 1598.86 904.08 1585.17 906.43 1571.48 907.52 1557.79 907.3 1544.09 905.78 1530.4 903.04 1516.71 899.2 1503.02 894.44 1489.33 889 1475.64 883.13 1461.95 877.11 1448.26 871.23 1434.57 865.76 1420.88 860.97 1407.19 857.09 1393.5 854.3 1379.8 852.72 1366.11 852.45 1352.42 853.49 1338.73 855.79 1325.04 859.23 1311.35 863.67 1297.66 868.89 1283.97 874.63 1270.28 880.62 1256.59 886.59 1242.9 892.25 1229.21 897.32 1215.52 901.56 1201.82 904.78 1188.13 906.83 1174.44 907.59 1160.75 907.04 1147.06 905.21 1133.37 902.17 1119.68 898.09 1105.99 893.14 1092.3 887.56 1078.61 881.63 1064.92 875.61 1051.23 869.81 1037.54 864.49 1023.85 859.91 1010.15 856.28 996.46 853.78 982.77 852.53 969.08 852.59 955.39 853.95 941.7 856.54 928.01 860.26 914.32 864.91 900.63 870.28 886.94 876.11 873.25 882.13 859.56 888.04 845.87 893.58 832.17 898.46 818.48 902.47 804.79 905.41 791.1 907.14 777.41 907.58 763.72 906.7 750.03 904.56 736.34 901.25 722.65 896.92 708.96 891.79 695.27 886.1 681.58 880.12 667.89 874.13 654.2 868.43 640.5 863.27 626.81 858.91 613.12 855.55 599.43 853.35 585.74 852.42 572.05 852.81 558.36 854.48 544.67 857.37 530.98 861.34 517.29 866.19 503.6 871.7 489.91 877.61 476.22 883.63 462.53 889.47 448.83 894.87 435.14 899.55 421.45 903.31 407.76 905.96 394.07 907.37 380.38 907.48 366.69 906.28 353 903.84 339.31 900.25 325.62 895.71 311.93 890.41 298.24 884.62 284.55 878.62 270.86 872.67 257.17 867.08 243.47 862.1 229.78 857.97 216.09 854.89 202.4 853 188.71 852.4 175.02 853.11 161.33 855.1 147.64 858.27 133.95 862.48 120.26 867.52 106.57 873.15 92.88 879.11 79.19 885.11 65.5 890.87 51.81 896.11 38.11 900.59 24.42 904.08 10.73 906.43 -2.95 907.52 -16.64 907.3 -30.33 905.79 -44.02 903.04 -57.71 899.2 -71.4 894.45 -85.09 889 -98.78 883.13 -112.47 877.11 -126.16 871.23 -139.85 865.77 -153.54 860.98 -154.84 846.18 -155.34 831.39 -155.03 816.6 -153.92 801.8 -152.08 787.01 -149.62 772.22 -146.7 757.42 -143.5 742.63 -140.22 727.84 -137.06 713.04 -134.22 698.25 -131.88 683.46 -130.17 668.66 -129.21 653.87 -129.06 639.08 -129.73 624.28 -131.17 609.49 -133.29 594.7 -135.97 579.9 -139.03 565.11 -142.29 550.32 -145.54 535.52 -148.59 520.73 -151.23 505.94 -153.32 491.14 -154.71 476.35 -155.32 461.56 -155.12 446.77 -154.11 431.97 -152.36 417.18 -149.98 402.39 -147.11 387.59 -143.94 372.8 -140.65 358.01 -137.47 343.21 -134.57 328.42 -132.15 313.63 -130.36 298.83 -129.3 284.04 -129.04 269.25 -129.59 254.45 -130.93 239.66 -132.97 224.87 -135.59 210.07 -138.61 195.28 -141.86 180.49 -145.12 165.69 -148.2 150.9 -150.91 136.11 -153.08 121.31 -154.57 106.52 -155.29 91.73 -155.19 76.93 -154.29 62.14 -152.63 47.35 -150.32 32.55 -147.51 17.76 -144.37 2.97 -141.09 -11.82 -137.88 -26.61 -134.94 -41.4 -132.44 -56.2 -130.56 -70.99 -129.39 -85.78" fill="url(#uuunion-grad)"></path><path d="M-129.4 -85.78Q-130.57 -70.99 -132.45 -56.2 -134.94 -41.4 -137.89 -26.61 -141.1 -11.82 -144.38 2.97 -147.52 17.76 -150.33 32.55 -152.64 47.35 -154.3 62.14 -155.2 76.93 -155.3 91.72 -154.58 106.52 -153.09 121.31 -150.92 136.1 -148.21 150.9 -145.13 165.69 -141.86 180.48 -138.62 195.28 -135.6 210.07 -132.98 224.86 -130.94 239.66 -129.6 254.45 -129.05 269.24 -129.31 284.04 -130.37 298.83 -132.16 313.62 -134.58 328.42 -137.48 343.21 -140.66 358 -143.95 372.8 -147.12 387.59 -138.13 389.61 -129.14 391.86 -120.15 394.28 -111.15 396.82 -102.16 399.42 -93.17 402.04 -84.18 404.61 -75.19 407.09 -66.2 409.42 -57.21 411.54 -48.21 413.43 -39.22 415.02 -30.23 416.3 -21.24 417.24 -4.25 417.94 -1.24 417.99 10.38 414.4 21.98 410.23 33.55 405.54 45.09 400.36 56.6 394.77 68.08 388.86 79.52 382.72 90.93 376.45 102.3 370.15 113.63 363.94 124.93 357.9 136.19 352.14 147.4 346.73 158.59 341.76 169.73 337.28 180.84 333.33 191.91 329.94 202.94 327.1 213.95 324.81 224.91 323.03 235.85 321.72 246.76 320.81 257.64 320.23 268.49 319.88 279.32 319.69 290.13 319.54 300.92 319.35 311.69 319.01 322.44 318.43 333.19 317.54 343.92 316.26 354.65 314.53 365.37 312.32 376.1 309.58 386.82 306.33 397.55 302.56 408.29 298.3 419.03 293.59 429.79 288.48 440.57 283.05 451.36 277.38 462.18 271.54 473.02 265.64 483.89 259.75 494.78 253.98 505.71 248.41 516.67 243.12 527.66 238.17 538.69 233.63 549.77 229.53 560.88 225.91 572.03 222.78 583.23 220.13 594.47 217.94 605.76 216.19 617.09 214.81 628.47 213.76 639.89 212.95 651.36 212.32 662.88 211.77 674.45 211.22 686.06 210.59 697.71 209.79 709.41 208.76 721.15 207.42 732.93 205.71 744.75 203.6 756.61 201.05 768.5 198.06 780.43 194.61 792.39 190.72 804.37 186.43 816.39 181.77 828.42 176.8 840.47 171.59 852.54 166.19 864.62 160.7 876.71 155.18 888.81 149.73 900.91 144.4 913 139.28 925.09 134.43 937.17 129.91 949.24 125.74 961.29 121.98 973.31 118.63 985.31 115.69 997.28 113.16 1009.22 111.02 1021.12 109.22 1032.98 107.72 1044.79 106.47 1056.55 105.39 1068.26 104.42 1079.91 103.5 1091.5 102.53 1103.03 101.46 1114.5 100.22 1125.89 98.75 1137.21 96.99 1148.46 94.9 1159.63 92.46 1170.73 89.64 1181.74 86.44 1192.67 82.87 1203.52 78.93 1214.29 74.68 1224.97 70.13 1235.56 65.35 1246.07 60.4 1256.49 55.32 1266.83 50.2 1277.08 45.09 1287.24 40.07 1297.33 35.18 1307.33 30.5 1317.26 26.06 1327.1 21.91 1336.88 18.08 1346.58 14.59 1356.21 11.44 1365.77 8.64 1375.28 6.17 1384.72 3.99 1394.11 2.09 1403.45 0.41 1412.74 -1.09 1422 -2.47 1411.72 -19.89 1402.32 -37.3 1394.58 -54.71 1389.15 -72.13 1386.5 -89.54 1386.85 -106.95 1390.16 -124.37 1396.17 -141.78 1384.13 -143.14 1372.1 -144.38 1360.06 -145.43 1348.03 -146.27 1336 -146.85 1323.96 -147.15 1311.93 -147.16 1299.89 -146.89 1287.86 -146.33 1275.82 -145.51 1263.79 -144.47 1251.76 -143.25 1239.72 -141.9 1227.69 -140.46 1215.65 -139.01 1203.62 -137.6 1191.58 -136.29 1179.55 -135.13 1167.52 -134.16 1155.48 -133.44 1143.45 -132.97 1131.41 -132.8 1119.38 -132.91 1107.34 -133.31 1095.31 -133.99 1083.28 -134.91 1071.24 -136.03 1059.21 -137.32 1047.17 -138.71 1035.14 -140.16 1023.1 -141.6 1011.07 -142.97 999.04 -144.23 987 -145.31 974.97 -146.17 962.93 -146.79 950.9 -147.13 938.86 -147.18 926.83 -146.94 914.8 -146.41 902.76 -145.63 890.73 -144.62 878.69 -143.42 866.66 -142.08 854.62 -140.65 842.59 -139.2 830.56 -137.78 818.52 -136.45 806.49 -135.27 794.45 -134.28 782.42 -133.52 770.38 -133.02 758.35 -132.8 746.32 -132.88 734.28 -133.25 722.25 -133.89 710.21 -134.78 698.18 -135.88 686.14 -137.14 674.11 -138.53 662.08 -139.97 650.04 -141.41 638.01 -142.8 625.97 -144.07 613.94 -145.18 601.9 -146.08 589.87 -146.73 577.84 -147.1 565.8 -147.19 553.77 -146.98 541.73 -146.5 529.7 -145.74 517.66 -144.76 505.63 -143.58 493.6 -142.25 481.56 -140.84 469.53 -139.39 457.49 -137.96 445.46 -136.62 433.42 -135.41 421.39 -134.39 409.36 -133.6 397.32 -133.07 385.29 -132.81 373.25 -132.85 361.22 -133.18 349.18 -133.79 337.15 -134.65 325.12 -135.72 313.08 -136.97 301.05 -138.34 289.01 -139.78 276.98 -141.23 264.94 -142.63 252.91 -143.92 240.88 -145.05 228.84 -145.97 216.81 -146.66 204.77 -147.07 192.74 -147.19 180.7 -147.03 168.67 -146.57 156.64 -145.85 144.6 -144.9 132.57 -143.74 120.53 -142.43 108.5 -141.02 96.46 -139.57 84.43 -138.14 72.4 -136.78 60.36 -135.56 48.33 -134.51 36.29 -133.69 24.26 -133.12 12.22 -132.83 0.19 -132.83 -11.83 -133.13 -23.87 -133.7 -35.9 -134.53 -47.94 -135.58 -59.97 -136.8 -72.01 -138.16 -84.04 -139.6 -96.07 -141.05 -108.11 -142.45 -120.14 -143.76 -135.75 -137.9 -135.21 -115.89 -131.89 -100.85 -129.4 -85.78" fill="url(#uuunion-grad2)" filter="url(#uuunion-blur)"></path><path d="M1392.94 315.93Q1401.61 318.28 1410.27 320.67 1418.93 323.04 1427.59 325.35 1436.25 327.54 1444.91 329.57 1453.58 331.4 1462.24 332.99 1479.56 335.16 1496.88 336.35 1514.21 335.84 1531.53 334.31 1539.63 352.11 1549.8 369.92 1561.19 387.73 1572.83 405.53 1583.75 423.34 1593.01 441.14 1599.84 458.95 1603.65 476.75 1604.14 494.56 1601.25 512.36 1595.23 530.17 1586.59 547.97 1576.06 565.78 1564.52 583.59 1552.96 601.39 1542.35 619.2 1533.58 637 1527.4 654.81 1524.32 672.61 1524.62 690.42 1528.26 708.22 1534.93 726.03 1544.08 743.84 1554.92 761.64 1566.55 779.45 1577.98 797.25 1588.24 815.06 1596.48 832.86 1601.98 850.67 1604.3 868.47 1603.23 886.28 1598.86 904.08 1586.3 906.28 1573.74 907.43 1561.18 907.48 1548.63 906.43 1536.07 904.32 1523.51 901.23 1510.95 897.29 1498.39 892.67 1485.84 887.53 1473.28 882.09 1460.72 876.57 1448.16 871.19 1435.6 866.15 1423.05 861.68 1410.49 857.93 1397.93 855.07 1385.37 853.21 1372.81 852.42 1360.26 852.74 1347.7 854.14 1335.14 856.58 1322.58 859.96 1310.03 864.15 1297.47 868.96 1284.91 874.22 1272.35 879.71 1259.79 885.21 1247.24 890.5 1234.68 895.38 1222.12 899.63 1209.56 903.1 1197 905.64 1184.45 907.16 1171.89 907.59 1159.33 906.91 1146.77 905.16 1134.21 902.39 1121.66 898.73 1109.1 894.32 1096.54 889.34 1083.98 883.98 1071.42 878.46 1058.87 873.01 1046.31 867.83 1033.75 863.14 1021.19 859.13 1008.64 855.95 996.08 853.73 983.52 852.57 970.96 852.5 958.4 853.54 945.85 855.63 933.29 858.7 920.73 862.63 908.17 867.25 895.61 872.38 883.06 877.81 870.5 883.33 857.94 888.72 845.38 893.76 832.82 898.25 820.27 902.01 807.71 904.88 795.15 906.76 782.59 907.57 770.03 907.27 757.48 905.88 744.92 903.45 732.36 900.08 719.8 895.91 707.24 891.11 694.69 885.85 682.13 880.36 669.57 874.86 657.01 869.56 644.46 864.69 631.9 860.42 619.34 856.94 606.78 854.38 594.22 852.85 581.67 852.4 569.11 853.06 556.55 854.8 543.99 857.55 531.43 861.19 518.88 865.59 506.32 870.57 493.76 875.92 481.2 881.44 468.64 886.9 456.09 892.08 443.53 896.78 430.97 900.81 418.41 904 405.85 906.23 393.3 907.41 380.74 907.49 368.18 906.48 355.62 904.4 343.07 901.34 330.51 897.43 317.95 892.82 305.39 887.7 292.83 882.26 280.28 876.74 267.72 871.35 255.16 866.3 242.6 861.81 230.04 858.04 217.49 855.15 204.93 853.25 192.37 852.43 179.81 852.71 167.25 854.08 154.7 856.49 142.14 859.85 129.58 864.01 117.02 868.81 104.46 874.05 91.91 879.54 79.35 885.04 66.79 890.35 54.23 895.23 41.67 899.51 29.12 903.01 16.56 905.58 -2.58 902.26 -9.58 887.19 -9.74 876.99 -9.66 866.79 -9.34 856.59 -8.79 846.39 -7.29 831.09 -6.05 826 7.37 819.08 20.79 811.11 34.18 802.18 47.54 792.4 60.85 781.93 74.09 770.95 87.27 759.66 100.37 748.28 113.38 737.03 126.3 726.1 139.13 715.7 151.87 705.98 164.51 697.1 177.07 689.14 189.54 682.18 201.93 676.22 214.25 671.25 226.51 667.21 238.71 663.99 250.87 661.46 263 659.45 275.12 657.78 287.23 656.26 299.35 654.69 311.49 652.87 323.66 650.63 335.87 647.79 348.14 644.23 360.47 639.83 372.88 634.54 385.36 628.32 397.94 621.17 410.6 613.16 423.36 604.35 436.21 594.87 449.15 584.86 462.18 574.49 475.3 563.92 488.49 553.34 501.76 542.94 515.08 532.88 528.45 523.31 541.86 514.38 555.29 506.18 568.72 498.79 582.14 492.25 595.54 486.55 608.9 481.66 622.19 477.53 635.41 474.04 648.54 471.08 661.57 468.5 674.47 466.14 687.24 463.84 699.86 461.44 712.34 458.77 724.64 455.68 736.79 452.06 748.76 447.8 760.56 442.82 772.18 437.08 783.64 430.57 794.94 423.31 806.09 415.36 815.6 412.4 825.09 409.11 834.58 405.53 844.04 401.72 853.5 397.75 862.93 393.68 872.36 389.59 881.77 385.55 891.17 381.64 900.55 377.9 909.92 374.42 919.27 371.25 928.61 368.42 937.94 365.99 947.25 363.98 956.55 362.41 965.84 361.29 975.12 360.6 984.38 360.34 993.63 360.49 1002.87 360.99 1012.09 361.81 1021.3 362.9 1030.5 364.19 1039.69 365.62 1048.87 367.12 1058.04 368.62 1067.2 370.06 1076.35 371.36 1085.48 372.46 1094.61 373.3 1103.73 373.83 1112.84 374 1121.94 373.79 1131.03 373.16 1140.12 372.09 1149.19 370.6 1158.26 368.68 1167.33 366.36 1176.38 363.65 1185.43 360.6 1194.48 357.26 1203.52 353.68 1212.55 349.91 1221.58 346.03 1230.61 342.1 1239.63 338.19 1248.65 334.36 1257.67 330.68 1266.68 327.22 1275.7 324.02 1284.71 321.13 1293.72 318.6 1302.73 316.46 1311.75 314.73 1320.76 313.41 1329.77 312.52 1338.79 312.03 1347.8 311.93 1356.83 312.2 1365.85 312.78 1374.88 313.63 1383.91 314.7 1392.94 315.93" fill="url(#uuunion-grad3)" filter="url(#uuunion-blur2)"></path></svg>