<svg xmlns="http://www.w3.org/2000/svg" version="1.1" xmlns:xlink="http://www.w3.org/1999/xlink" xmlns:svgjs="http://svgjs.dev/svgjs" viewBox="0 0 800 800"><defs><filter id="uuunion-blur" x="-100%" y="-100%" width="400%" height="400%" color-interpolation-filters="sRGB">
        <feGaussianBlur in="SourceGraphic" stdDeviation="13.5 3.5" result="blur"></feGaussianBlur>
        <feDropShadow stdDeviation="22.153846153846153" in="blur" dx="18" dy="18" flood-color="#ff48b0" flood-opacity="0.53" x="0%" y="0%" width="100%" height="100%"></feDropShadow>
      </filter><filter id="uuunion-blur2" x="-100%" y="-100%" width="400%" height="400%" color-interpolation-filters="sRGB">
        <feGaussianBlur in="SourceGraphic" stdDeviation="13.5 3.5" result="blur"></feGaussianBlur>
        <feDropShadow stdDeviation="22.153846153846153" in="blur" dx="-18" dy="-18" flood-color="#ff48b0" flood-opacity="0.53" x="0%" y="0%" width="100%" height="100%"></feDropShadow>
      </filter><linearGradient gradientTransform="rotate(108, 0.5, 0.5)" x1="50%" y1="0%" x2="50%" y2="100%" id="uuunion-grad"><stop stop-color="hsl(37, 91%, 55%)" offset="10%"></stop><stop stop-color="#ff48b0" offset="90%"></stop></linearGradient><linearGradient gradientTransform="rotate(251, 0.5, 0.5)" x1="50%" y1="0%" x2="50%" y2="100%" id="uuunion-grad2"><stop stop-color="hsl(37, 91%, 55%)" offset="25%"></stop><stop stop-color="#ff48b0" offset="100%"></stop></linearGradient><linearGradient gradientTransform="rotate(221, 0.5, 0.5)" x1="50%" y1="0%" x2="50%" y2="100%" id="uuunion-grad3"><stop stop-color="hsl(37, 91%, 55%)" offset="0%"></stop><stop stop-color="#ff48b0" offset="75%"></stop></linearGradient></defs><path d="M-79.18 -78.5Q-64.39 -76.83 -49.59 -75.36 -34.8 -74.19 -20 -73.39 -5.21 -73.02 9.58 -73.1 24.37 -73.61 39.17 -74.54 53.96 -75.82 68.76 -77.37 83.55 -79.09 98.35 -80.86 113.14 -82.58 127.94 -84.13 142.73 -85.42 157.53 -86.36 172.32 -86.89 187.12 -86.97 201.91 -86.61 216.7 -85.82 231.5 -84.66 246.29 -83.2 261.09 -81.53 275.88 -79.76 290.68 -78.01 305.47 -76.38 320.27 -74.99 335.06 -73.92 349.86 -73.24 364.65 -73 379.45 -73.2 394.24 -73.84 409.04 -74.88 423.83 -76.24 438.63 -77.85 453.42 -79.59 468.22 -81.36 483.01 -83.05 497.81 -84.53 512.6 -85.73 527.4 -86.55 542.19 -86.96 556.98 -86.91 571.78 -86.43 586.57 -85.53 601.37 -84.27 616.16 -82.74 630.96 -81.03 645.75 -79.25 660.55 -77.53 675.34 -75.96 690.14 -74.65 704.93 -73.68 719.73 -73.13 734.52 -73.01 749.32 -73.34 764.11 -74.1 778.91 -75.24 793.7 -76.68 808.5 -78.34 823.29 -80.1 838.09 -81.86 850.39 -76.9 837.1 -55.7 838.33 -41.09 851.24 -26.49 872.2 -11.88 895.34 2.71 914.19 17.32 923.45 31.92 920.54 46.53 906.27 61.13 884.63 75.74 861.7 90.34 843.89 104.95 836.2 119.55 840.78 134.16 856.35 148.76 878.54 163.37 901.14 177.97 917.82 192.58 923.89 207.18 917.67 221.79 900.9 236.4 878.26 251 856.11 265.61 840.66 280.21 836.22 294.82 844.05 309.42 861.95 324.03 884.91 338.63 906.49 353.24 920.65 367.84 923.41 382.45 914.01 397.05 895.08 411.66 871.92 426.26 851.03 440.87 838.25 455.47 837.17 470.08 848.08 484.68 867.94 499.29 891.18 513.89 911.28 528.5 922.62 543.1 922.01 557.71 909.63 572.31 888.95 586.92 865.76 601.52 846.55 616.13 836.72 630.73 839.01 645.34 852.79 659.95 874.18 674.55 897.21 689.16 915.41 703.76 923.69 718.37 919.73 732.97 904.63 747.58 882.63 762.18 859.89 776.79 842.79 791.39 836.11 806 841.72 820.6 858.07 835.21 880.55 849.81 865.54 858.49 850.53 868.54 835.52 879.33 820.51 890.17 805.5 900.35 790.49 909.22 775.49 916.21 760.48 920.88 745.47 922.92 730.46 922.19 715.45 918.76 700.44 912.83 685.43 904.79 670.42 895.16 655.41 884.55 640.4 873.65 625.39 863.16 610.38 853.75 595.37 846.02 580.37 840.49 565.36 837.49 550.35 837.22 535.34 839.71 520.33 844.78 505.32 852.12 490.31 861.25 475.3 871.58 460.29 882.46 445.28 893.18 430.27 903.05 415.26 911.44 400.25 917.8 385.24 921.74 370.24 922.99 355.23 921.48 340.22 917.3 325.21 910.72 310.2 902.17 295.19 892.19 280.18 881.43 265.17 870.57 250.16 860.33 235.15 851.34 220.14 844.2 205.13 839.36 190.12 837.13 175.12 837.66 160.11 840.9 145.1 846.67 130.09 854.57 115.08 864.11 100.07 874.67 85.06 885.57 70.05 896.12 55.04 905.63 40.03 913.49 25.02 919.19 10.01 922.38 -4.99 922.84 -19.99 920.55 -35 915.65 -50.01 908.46 -65.02 899.43 -80.03 889.16 -78.55 874.04 -77.47 858.92 -77.1 843.8 -77.54 828.68 -78.67 813.56 -80.17 798.44 -81.62 783.32 -82.62 768.2 -82.88 753.08 -82.33 737.96 -81.13 722.84 -79.61 707.72 -78.2 692.6 -77.29 677.48 -77.14 662.36 -77.79 647.24 -79.05 632.12 -80.59 617 -81.95 601.88 -82.77 586.76 -82.81 571.64 -82.06 556.52 -80.73 541.4 -79.2 526.28 -77.89 511.16 -77.17 496.04 -77.24 480.93 -78.08 465.81 -79.46 450.69 -80.99 435.57 -82.24 420.45 -82.86 405.33 -82.68 390.21 -81.75 375.09 -80.32 359.97 -78.8 344.85 -77.62 329.73 -77.1 314.61 -77.4 299.49 -78.42 284.37 -79.88 269.25 -81.38 254.13 -82.48 239.01 -82.89 223.89 -82.49 208.77 -81.39 193.65 -79.9 178.53 -78.43 163.41 -77.4 148.29 -77.1 133.17 -77.61 118.05 -78.79 102.93 -80.3 87.81 -81.73 72.69 -82.67 57.57 -82.87 42.45 -82.25 27.33 -81.01 12.21 -79.48 -2.9 -78.1 -18.02 -77.24 -33.14 -77.16 -48.26 -77.87 -63.38 -79.18 -78.5" fill="url(#uuunion-grad)"></path><path d="M-79.18 -78.5Q-77.87 -63.38 -77.16 -48.26 -77.24 -33.14 -78.1 -18.02 -79.48 -2.9 -81.01 12.21 -82.25 27.33 -82.87 42.45 -82.67 57.57 -81.73 72.69 -80.3 87.81 -78.79 102.93 -77.61 118.05 -77.1 133.17 -77.4 148.29 -78.43 163.41 -79.9 178.53 -81.39 193.65 -82.49 208.77 -82.89 223.89 -82.48 239.01 -81.38 254.13 -79.88 269.25 -78.42 284.37 -77.4 299.49 -77.1 314.61 -77.62 329.73 -78.8 344.85 -80.32 359.97 -81.75 375.09 -82.68 390.21 -82.86 405.33 -72.38 409.37 -61.9 413.14 -51.42 416.54 -40.93 419.47 -30.45 421.83 -19.97 423.57 -0.32 424.9 3.07 424.98 16.15 417.77 29.13 409.52 41.92 400.32 54.46 390.34 66.68 379.76 78.56 368.77 90.1 357.59 101.34 346.46 112.33 335.58 123.15 325.15 133.92 315.36 144.74 306.34 155.75 298.2 167.07 291.02 178.82 284.8 191.09 279.53 203.95 275.15 217.43 271.55 231.55 268.59 246.24 266.12 261.44 263.96 277.02 261.91 292.83 259.8 308.7 257.42 324.44 254.63 339.85 251.27 354.74 247.23 368.93 242.43 382.29 236.82 394.71 230.39 406.13 223.18 416.56 215.24 426.03 206.67 434.67 197.6 442.62 188.15 450.1 178.48 457.35 168.76 464.64 159.13 472.24 149.75 480.43 140.75 489.47 132.24 499.57 124.3 510.92 117.01 523.62 110.37 537.74 104.39 553.23 99.05 570 94.26 587.87 89.96 606.62 86.04 625.95 82.38 645.52 78.86 664.97 75.35 683.94 71.72 702.07 67.87 719.04 63.69 734.57 59.09 748.46 54.04 760.56 48.47 770.85 42.39 779.38 35.81 786.28 28.77 791.8 21.31 796.25 13.51 800 5.46 776.59 -12.39 762.04 -30.25 761.83 -48.11 776.06 -65.97 799.33 -83.83 822.86 -101.68 837.74 -119.54 838.35 -137.4 822.75 -136.49 807.15 -135.8 791.54 -135.38 775.94 -135.25 760.34 -135.42 744.73 -135.88 729.13 -136.6 713.53 -137.54 697.92 -138.64 682.32 -139.82 666.72 -141.01 651.12 -142.14 635.51 -143.13 619.91 -143.92 604.31 -144.47 588.7 -144.72 573.1 -144.68 557.5 -144.35 541.89 -143.73 526.29 -142.88 510.69 -141.84 495.08 -140.69 479.48 -139.49 463.88 -138.33 448.27 -137.27 432.67 -136.38 417.07 -135.73 401.47 -135.34 385.86 -135.25 370.26 -135.46 354.66 -135.96 339.05 -136.72 323.45 -137.68 307.85 -138.79 292.24 -139.97 276.64 -141.16 261.04 -142.28 245.43 -143.25 229.83 -144.01 214.23 -144.52 198.63 -144.74 183.02 -144.66 167.42 -144.28 151.82 -143.63 136.21 -142.75 120.61 -141.7 105.01 -140.54 89.4 -139.34 73.8 -138.18 58.2 -137.14 42.59 -136.28 26.99 -135.66 11.39 -135.31 -4.2 -135.26 -19.81 -135.51 -35.41 -136.05 -51.01 -136.83 -66.62 -137.82 -82.22 -138.94 -97.82 -140.13 -113.43 -141.31 -129.03 -142.41 -139.22 -130.19 -120.33 -112.35 -109.85 -104.05 -99.44 -95.63 -89.19 -87.1 -79.18 -78.5" fill="url(#uuunion-grad2)" filter="url(#uuunion-blur)"></path><path d="M839.55 413.65Q850.04 409.92 860.52 405.91 871 401.73 881.48 397.5 891.97 393.34 902.45 389.37 913.47 391.38 895.08 411.66 871.92 426.26 851.03 440.87 838.25 455.47 837.17 470.08 848.08 484.68 867.94 499.29 891.18 513.89 911.28 528.5 922.62 543.1 922.01 557.71 909.63 572.31 888.95 586.92 865.76 601.52 846.55 616.13 836.72 630.73 839.01 645.34 852.79 659.95 874.18 674.55 897.21 689.16 915.41 703.76 923.69 718.37 919.73 732.97 904.63 747.58 882.63 762.18 859.89 776.79 842.79 791.39 836.11 806 841.72 820.6 858.07 835.21 880.55 849.81 866.78 857.71 853 866.82 839.23 876.64 825.45 886.64 811.68 896.28 797.91 905.04 784.13 912.45 770.36 918.09 756.58 921.67 742.81 922.99 729.03 921.98 715.26 918.7 701.49 913.32 687.71 906.13 673.94 897.53 660.16 887.97 646.39 877.99 632.62 868.11 618.84 858.88 605.07 850.79 591.29 844.28 577.52 839.71 563.75 837.33 549.97 837.25 536.2 839.49 522.42 843.93 508.65 850.32 494.88 858.32 481.1 867.49 467.33 877.34 453.55 887.33 439.78 896.93 426 905.61 412.23 912.9 398.46 918.41 384.68 921.84 370.91 922.99 357.13 921.82 343.36 918.39 329.59 912.87 315.81 905.57 302.04 896.88 288.26 887.28 274.49 877.29 260.72 867.44 246.94 858.27 233.17 850.28 219.39 843.9 205.62 839.47 191.84 837.24 178.07 837.33 164.3 839.73 150.52 844.31 136.75 850.83 122.97 858.92 109.2 868.16 95.43 878.04 81.65 888.03 67.88 897.57 54.1 906.17 40.33 913.35 26.56 918.72 5.73 917.3 -1.61 902.24 -1.82 891.86 -1.93 881.49 -1.93 871.11 -1.8 860.74 -1.18 845.18 -0.29 840 12.38 832.62 25.33 823.53 38.52 812.87 51.92 800.85 65.45 787.75 79.02 773.89 92.52 759.61 105.85 745.28 118.91 731.25 131.62 717.88 143.91 705.47 155.72 694.29 167.06 684.53 177.94 676.34 188.41 669.78 198.57 664.86 208.54 661.47 218.44 659.49 228.45 658.7 238.72 658.84 249.41 659.62 260.66 660.71 272.6 661.78 285.3 662.5 298.83 662.58 313.19 661.73 328.32 659.72 344.14 656.39 360.5 651.63 377.23 645.38 394.12 637.66 410.93 628.57 427.43 618.25 443.38 606.89 458.56 594.75 472.78 582.09 485.91 569.21 497.84 556.41 508.55 543.98 518.08 532.19 526.52 521.27 534.04 511.42 540.85 502.79 547.23 495.46 560.18 485.37 574.67 478.86 583.56 477.31 593.8 476.42 605.55 475.93 618.91 475.59 633.9 475.12 650.44 474.27 668.39 472.8 687.51 470.52 707.5 467.25 728.01 462.89 748.63 457.36 768.96 450.66 788.59 442.82 807.11 433.95 824.19 424.17 839.55 413.65 839.55 413.65 839.55 413.65" fill="url(#uuunion-grad3)" filter="url(#uuunion-blur2)"></path></svg>