<?xml version="1.0" encoding="UTF-8"?><svg id="Calque_1" xmlns="http://www.w3.org/2000/svg" viewBox="0 0 342.19 341.05"><defs><style>.cls-1{fill:#fff;}</style></defs><path class="cls-1" d="M84.78,172.93c-.12.19-.82.2-1,.69-.39,1.08.27,2.3.17,3.02-.05.37-.91,1.01-1.19,1.69-1.26,3.12-1.86,6.21-3.9,9.06-3.12,4.36-3.7.15-7.32-.5s-7.77.53-10.95,2.05c-1.58.76-6.84,4.87-7.61,4.94-.98.1-2.08-1.16-2.44-1.99-3.6-8.17-2.56-20.97-1.88-29.75,2.14-27.69,9.43-40.74,24.02-63.25,1.92-2.96,6.54-12.48,9.5-13.36s4.26.74,5.24,3.18c1.09,2.74,1.62,8.64,1.21,11.66-.83,6.23-4.1,6.79-7.77,10.9-7.29,8.16-19.73,27.86-21.79,38.42-.53,2.7-1.46,9.77-.07,12.04,1.83,2.98,10.35,3.09,13.45,2.48s5.59-3.05,8.43-3.04c3.38.01,4.82,4.06,4.61,6.89-.04.54-.57,4.66-.71,4.87Z"/><path class="cls-1" d="M132.39,180.53c-.62.56-1.55.42-1.92-.37-.87-1.88-1.87-7.79-1.79-9.97.26-6.87,3.05-12.36,4.46-18.82,2.95-13.51,4.35-47.82-2.47-59.79-1.53-2.68-4.75-5.14-5.42-8.49l-2.8,1.44c-6.79-4.57-5.36-10.49-1.32-16.43,5.9-8.68,19.34-24.97,29.59-12.2,10.45,13.03,2.51,37.63-9.76,47.23.24,2.27.84,4.56,1.05,6.83,2,20.72.39,44.73-6.41,64.47-.43,1.25-2.37,5.35-3.22,6.12ZM136.32,86.89c6.24-1.44,10.03-7.29,11.32-13.25.95-4.4,1.4-6.51-3.89-6.59s-9.87,3.94-12.98,8.05l5.55,11.8Z"/><path class="cls-1" d="M120.16,168.94c-.04-.12-.6-.13-.61-.35-.11-2.31,1.54-4.89,2.1-7.01,3.42-13.11,3.85-28.03,4-41.54-.88-.22-.63.17-.87.48-.62.79-1.65,3.11-1.98,4.1-.62,1.89-1.22,11.16-2.72,11.41-1.82.3-5.63-8-5.92-9.65l-2.61-4.43,1.16,16.94v9.18c-.62,8.71-1.54,17.46-2.97,25.99-.1.58.26,1.15.05,1.92-.08.3-2.78,5.2-3,5.41-1.21,1.14-1.92-.47-2.28-1.53-2.07-6.07-.68-6.67.47-12.09,2.5-11.76,1.83-31.31.03-43.29-.77-5.14-5-15.77-1.73-19.96s5.54,2.4,6.74,4.28c.47.73,1.42,1.23,1.99,2.2,1.8,3.08,3.76,8.93,5.7,11.45.33.43.39.78,1.08.63,1.36-4.75,4.13-10.12,4.57-15.06.3-3.36-1.16-7.97,3.19-9.25,5.56,3.79,4.68,13.43,4.44,19.54-.59,14.96-2.38,31.23-4.19,46.12-.42,3.47-.27,7.08-2.21,10.36-.29.49-.52.99-1.09,1.22-.56.15-.7.01-1.08-.34-.94-.87-1.74-5.3-2.24-6.73Z"/><path class="cls-1" d="M78.3,250.29l-1.71-.02c-3.08-5.5-7.07-10.4-10.33-15.78-3.89-6.43-10.84-18.95-11.09-26.26-.37-10.79,8.87-17.59,18.75-11.89,15.85,9.15,12.88,30.83,8.45,45.65-.97,3.23-2.65,5.43-4.08,8.31ZM71.05,208.93c-1.68.27-7.59,3.47-8.67,4.68-.37.42-.41.47-.33,1.05.32,2.16,6.51,10.64,8.18,12.82,1.13,1.48,6.28,8.41,7.89,8.01,1.05-.68,1.62-2.15,2.08-3.29,1.87-4.63,3.51-15.26.64-19.51-2.17-3.21-6.05-4.34-9.79-3.74Z"/><path class="cls-1" d="M100.36,134.66c5.37,5.24,1.61,20.84.56,27.54-.89,5.65-.35,10.12-4.07,14.98-.37.48-.76,1.1-1.44,1.1-1.93.05-2.29-6.14-3.22-7.45-.71-4.73,1.48-7.73,1.84-11.71.64-6.97-2.62-14.32-.2-20.78.95-2.54,3.71-6.44,6.53-3.68Z"/><path class="cls-1" d="M83.24,116.29c2.96-.59,3.85,5.6,3.73,7.68-.24,4.24-1.67,12.94-4.23,16.25-1.04,1.35-2.07,1.82-3.16.16-2.74-4.18-1.43-12.99-.26-17.68.52-2.08,1.43-5.91,3.92-6.41Z"/><path class="cls-1" d="M159.46,82.41c2.5-.64,6.11.41,7.24,2.86,1.58,3.43,2.15,6.49.88,10.21-.38,1.1-2.38,4.72-3.41,4.96-2,.46-7.08-8.18-7.49-10.1-.49-2.32.1-7.24,2.78-7.93Z"/><path class="cls-1" d="M94.25,125.9c-1.44-2.57-1.94-5.12-1.34-8.3.46-2.48,2.65-5.31,4.86-2.64,1.85,2.23,2.88,6.97,2.74,9.87-.06,1.19-.52,6.9-2.06,6.62-1.05-.19-3.59-4.46-4.2-5.55Z"/><path class="cls-1" d="M212.05,30.61c.08.04.08.45.22.51.77.34,3.26.74,2.37,1.98l-2.29.44-.57-1.15-.38,2.66c.27.28,1.57-1.12,2.29-.38.22.23-1.06,1.39.38,1.14l-1.9,1.14,3.81-.76c-.73,1.56.49,1.21,1.14,2.28-1.24-.03-2.98-2.2-3.61-.38-.38-.57-1.11-.58-1.59-.92-.43-.3.34-1.15-1.27.15l1.14-1.9-1.91.38.38,1.14h-1.14s.38-1.14.38-1.14l-1.14.38.95-1.52.22.71,1.11-.52-.56-1.33.94.76c.91-1.13-1.1-2.44-1.09-2.86,0-.59,1.39-1.17,2.14-.83Z"/><path class="cls-1" d="M253.69,51.45c-1.46-.29-3.07-1.29-4,0l-.57-.75.76-.76c-.76-.03-1.59.33-1.53,1.14l-1.13-.77c-.43-.69,3.06-1,3.42,0,.26-1.4-1.54-1.3-.76-2.28-.96.32-1.29.27-1.9-.57l.75-.57.22.78,3.6-.79-.76-1.9c1.55-.02.56,2.01,2.28,1.52v.37c-.83-.14-.82.42-.76,1.15l-1.52-.76.38,1.14-1.9-.76,1.12,2.12,2.31-.22c-.54-.86-.09-2.34,1.14-2.28l-1.52,3.42c1.56.18,1.11-1.4,1.2-1.47.17-.13,2.13-.52,2.23-.43l-.38,1.14,1.14-.76.8,2.26,2.63-.35c-.66,1.01-1.6-.43-.76,1.52-1.16-.8-1.32-.68-2.46,0l-.2-1.53-1.14.38-.57-1.52c-.69.54-1.37,1.05-2.1,1.52.23.05.52-.03.76,0l-.38,1.52c-.56.05-2.97-.68-1.53-1.04.17-.04.54.15.91-.07.23-.14.22-.4.24-.41Z"/><path class="cls-1" d="M238.82,44.59c.19.2.47.39.76.39v.37c-.42,0-.77.23-1.14.39-.09-.41-.24-.75-.38-1.14.25-.04.54.04.76,0Z"/><path class="cls-1" d="M242.25,42.68c.06-.06-.11-1.6-.76-1.15v-.37c1.19-.22,2.52-.51,2.67-1.91l.56.76.95-.4-.37-.74,1.14.57c-.86.8-2.15.62-2.31,2.08l-1.11-.36.23,1.15c-.22.33-.86.26-.99.37-.08.07.26,1.24-1.52.77l1.5.39.02.87,1.14-.12-1.26.75-.26,1.15c1.06.07,2.03-.58,2.47-1.52l.96.39-.57,1.52,1.32-1.34-1.5-1.32,1.71-1.15.56.76c-.06-.65.14-1.43,0-2.03-.03-.13-2.06-.78.38-1.39.08,1.12-.5,2.14.76,2.47-1.24.7-.7,2.18-.89,2.78-.04.11-1.84,1.5-.44,1.99.28.1,1.58-2.41.95-3.05l1.14,1.14.41-1.5,2.64-.02c.05.7-1.12.47-1.44.82-.07.08.4.88-.3,1.03-1.88-.65-2.07.33-2.83,1.77l1.14,1.32-2.9-1.29c-.47-.46-1.92-1.75-2.43-1.37v1.69s-.77.21-.77.21l.32-.69c-1.1-.27-1.18-.9-1.08-1.97-.85.16-.65,1.36-1.12,1.75-.34.28-1.73-.93-.78.54-1.25.24-.59-.56-.77-1.14.26-.04,2.68-1.82,2.29-2.66-.76.08-1.54.22-2.29.38-.45-.46-.98-.28-.37-1.14l-1.15-.38,1.9-.77-.76.95.93.58,2.88-1.15Z"/><path class="cls-1" d="M238.44,45.73c.09.44.27.77.38,1.14-.45.07-1.33-.48-1.9-.39v-.37c.47-.14,1.09-.2,1.52-.39Z"/><path class="cls-1" d="M241.37,39.41l.88.98c-1.2.45-.98-.84-1.67-.77-1.17.12-2.12,1.03-3.28,1.15-.39-1.29,2-.86,2.28-1.15l-1.14-1.14.95-.75c.31,1.44.61,1.41,1.97,1.68Z"/><path class="cls-1" d="M225.87,30.87l-.72.54.35,1.75.75.18-.95,1.34-.37-.77-.88.45c.14.94-.42,1.32.69,1.65l-.76.95c.11-.81-.47-.82-1.14-.77l.38-.75c-.75-.02-1.37.3-1.15-.76,1.27.58,1.19-.3,1.66-.64.4-.3,1.51.17,1-1.06-.46-1.1-2.57-.42-2.27-1.72,1.32.87,2.06-.47,3.42-.38Z"/><path class="cls-1" d="M231.55,33.58c.11.1.35,1.83,1.56,2.06l-.76.94c1.47-.44,2.28,1.03,2.66,2.29-1.77.47-.91-1.15-1.63-1.81-.29-.27-1.51-.28-1.8-1.05l.76-.57-1.17-.24.03-1.29-1.9.38c-.02-.71,2.05-.9,2.25-.72Z"/><path class="cls-1" d="M180.9,16.77l-.38,1.9-2.66-.77c-.1-.61.53-.29,1.02-.52.14-.07.14-.48.2-.5.27-.1,1.23.44,1.82-.11Z"/><path class="cls-1" d="M256.35,54.11c.46-2.07.96.02.5,1.03-.37.81-.39.5-1.25.49l.76-.75-1.9-1.52,1.89.75Z"/><polygon class="cls-1" points="225.1 39.25 224.73 40.39 226.25 40.02 226.25 41.15 223.2 39.82 225.1 39.25"/><path class="cls-1" d="M184.33,17.15v2.28c-.88-.74-1.06-1.38-2.28-1.72l2.28-.56Z"/><path class="cls-1" d="M245.68,42.3c.25,1.09-2.58,1.89-3.04.95l1.52-.19-.39-.76h1.91Z"/><path class="cls-1" d="M230.44,34.68l-.59,1.15c-1-.62-1.84-.21-2.07-1.53l.96-.39c.57,1.04.49,1.22,1.71.77Z"/><polygon class="cls-1" points="246.34 50.44 247.59 51.44 245.69 51.83 245.3 50.31 246.34 50.44"/><path class="cls-1" d="M227.85,33.05c.61.31,1.51-.24,1.44.48l-2.28.38c.29-.36.09-.94.18-1.14.49-1.07.62.26.66.27Z"/><polygon class="cls-1" points="252.92 54.12 251.97 55.25 251.02 53.73 252.92 54.12"/><path class="cls-1" d="M241.49,41.92c-.08.82-2.63.32-2.66-.38l2.66.38Z"/><polygon class="cls-1" points="227.39 39.25 225.49 39.63 226.64 38.11 227.39 39.25"/><polygon class="cls-1" points="198.43 19.44 198.04 21.34 197.67 21.34 197.67 19.44 198.43 19.44"/><polygon class="cls-1" points="257.5 56.78 257.49 57.93 255.59 57.16 255.59 56.79 257.5 56.78"/><path class="cls-1" d="M197.82,49.4c.04.09.72.22.64.7,6.01,28.58,12.96,56.61,11.04,86.16-.66,10.16-3.64,35.78-9.38,43.59-.35.47-1.38,1.9-1.88,1.96l-.99-.27c-1.04-1.32-1.96-8.72-1.87-10.61.16-2.96,1.8-4.69,2.64-7.27,1.39-4.25,2.34-10.4,3.01-14.9,3.91-26.5,1.21-52.81-5.28-78.63-.66-.09-.36.87-.38,1.33-.13,3.81-.12,8.83-.86,12.48-1.81,8.94-6.43,1.8-8.83-2.41-1.6-2.81-2.61-5.93-4.22-8.74-2.12-3.7-4.91-6.47-7.82-9.52,4.48,11.23,8.83,22.14,11.55,33.99,4.64,20.19,6.67,46.36,2.89,66.77-.39,2.13-3.64,13.2-6.08,13.03-.92-.21-1.09-1.27-1.32-2.11-2.47-8.97-.15-10.43.92-18.54,3.37-25.69-1.57-59.49-12.58-82.98-2.91-6.21-8.79-12.26-7.9-19.45.33-2.69,2.43-5.36,5.26-3.82.76.41,1.27,1.54,1.95,1.86.74.35,1.68.3,2.67.76,6.23,2.9,9.51,12.04,15.34,15.78,2.54-.39,5.02-6.71,5.19-8.96.14-1.93-1.85-4.59-2.44-6.63-.7-2.42-1.15-6.18.39-8.34,3.52-4.95,6.91,1.7,8.33,4.79Z"/><path class="cls-1" d="M220.15,67.45l4.23,33.49c2.08-.08,4.09.42,5.81,1.63,3.53,2.49,3.16,6.44,2.35,10.23-1.03,4.83-3.49,7.19-8.57,7.24-.61,11.16-2.2,22.27-4.31,33.23-.5,2.6-2.2,7.37-2.2,9.66,0,.53.04.72.4,1.12,2.28,2.55,13.86,1.15,15.59,3.85.48.76.38,4.35-.17,5.09s-1.46.05-.55,2.3h-1.15c.59,1.51-1.42,5.91-2.88,6.12-1.56.22-2.65-1.51-3.97-2.12-4.36-2.01-11.3-.7-15.83.46-.94-.1-1.56-2.71-1.66-3.54-1.24-10.37,2.63-11.97,5.3-20.53,6.7-21.47,7.72-56.33,3.69-78.4-1.43-7.85-6.5-12.2-7.36-18.86-.09-.67.79-1.41-.52-1.26v-.37c.31.05.59,0,.76-.29.3-.51.64-3.74,1.23-4.58.07-.1,1.98-1.13,2.11-1.16,2.42-.62,2.76,1.5,4.15,2.53,2.53,1.87,9.28,4.3,12.59,6.09,4.57,2.47,16.05,8.22,14.52,14.66-.47,1.98-2.53,1.96-4.21,1.7l-19.33-8.29Z"/><path class="cls-1" d="M110.23,195.29c.2.19.92.79.93.85.25,1.61-2.74,4.86-4.07,5.77-4.15,2.83-8.38,2.11-13.08,2.74l2.28,17.14c.78-.04,1.54-.03,2.31.17,1.73.44,8.22,2.64,9.47,3.48.51.34.82.64,1.09,1.2.76,1.55.17,9.87-1.7,10.34l-11.54-4.53-2.66,13.18c.02.66,2.89,2.29,3.68,2.75,4.67,2.76,15.88,6.34,16.82,12.18.27,1.71-.9,1.56-1.3,2.39-.14.29-.4,2.3-.84,3.31-2.64,5.94-2.75,2.21-5.4-.47-3.58-3.62-12.61-8.45-17.72-7.78-.94.12-1.79,1.07-2.83.69-.34-.98-.85-1.89-1.09-2.91-.68-2.92-1.1-6.47.13-9.19,1.14-2.54,3.37-4.14,4.45-6.6,3.45-7.91,3.09-22.88.29-30.99-1.44-4.17-6.2-9.96-3.04-14.34,1.15-1.59,2.1-.69,3.15-.84,5.81-.85,16.25-2.84,20.67,1.46Z"/><path class="cls-1" d="M166.7,170.64c-.05.11-.56.15-.65.36-.71,1.63-1.02,3.92-3.39,3.49-1.37-2.96-3.19-6.6-2.62-9.96.68-4.05,2.09-3.84.94-9.12-.8-3.64-4.61-11.6-8.84-11.74-.59,5.36-.44,10.83-.96,16.2-.19,1.96-1.55,14.31-4,14.29-3.85-6.08-1.25-13.62-.94-20.36.37-8.1.39-18.23,0-26.33-.23-4.77-1.34-7.29-2.2-11.51-.69-3.37.58-9.36,4.45-10.22,6.22-1.38,11.05.47,14.08,6.17,4.51,8.47,3.18,18.83-2.17,26.56,3.34,7.65,7.81,17.9,7.18,26.37-.06.79-.71,5.41-.88,5.8ZM151.94,127.66c4.99,1.83,12.28-10.28,4.03-8.77-.66.12-4.03,2.92-4.03,3.24v5.53Z"/><path class="cls-1" d="M169.36,106.02c3.38-1.02,5.66,3.61,6.61,6.19,4.32,11.79,4.29,35.29,1.32,47.47-.92,3.78-2.28,8.98-5.79,10.99-1.71.16-3.2-6.75-3.18-8.15.04-2.41,2.27-5.12,2.95-7.34,2.17-7.17.75-23.19-1.23-30.57-1.46-5.44-4.78-10.41-2.49-16.21.33-.83.88-2.1,1.81-2.38Z"/><path class="cls-1" d="M182.42,27.44l-4.95.77c.07,1.05,1.55,1.56,2.46,1.54.32,0-.03-1.19.97-.78.1,1.15-.93,2.35-1.9,1.52-.48,1.7,1.44,1.65,1.14,3.43-.66.17-.24-.61-.4-.72-.14-.1-.66.43-1.03.28-.1-.04-.79-1.36-1.79-1.08l.19.76-2.86.76-.58-1.52c-1.07-.22-.72.39-.76,1.13h-2.66s.76-1.13.76-1.13l-1.52-.38.22,1.54c-1.15,1.21-2.17.03-3.01.06-.53.02-1.17.59-1.6.55-.74-.07-1.12-1.94-1.5-.32-1.48-.55-2.69.53-4.26.79-41.09,6.82-73.79,24.25-100.36,57.78-15.09,19.04-22.32,44.23-24.25,68.29-4.72,58.88,37.72,114.02,91.63,134.49,98.16,37.27,203.69-55.31,177.8-157.47-3.54-13.96-9.78-27.49-15.05-40.65-.2-.5-1.18-.03-.35-1.82l-1.14-.19,1.9-1.33c-1.29-.19-.58-2.05-2.67-1.53l-.76-.76.76-1.14-1.37-.37c-.33-.45.78-1.37-.53-1.16-.07-.81.92-.07,1.34-.14s.63-.56.94-.81l-1.15-.19c.81-.59-.96-1.75-1.04-2.1-.02-.08.03-1.67.08-1.74.25-.34,1.02-.29,1.34-.56.64-.54.49-2,2.3-2.08l-.18,1.14-.96-.37c.37,1.38-.61,2.29-1.9,1.91v1.27s1.14,1.01,1.14,1.01l-.76-1.52c.61-.23,1.44-.2,1.99-.42.36-.14.38-.7.48-.74,1.55-.52.5,1.15,1.33,1.15-.1-.93.52-2.48-.75-2.29v-.37s3.8-1.15,3.8-1.15l-1.14,1.52,2.29-.76,1.14.76-.76.57c1.12,1.38,1.29,3.03,3.43,2.48l-.76.75h1.9c.58.88-1.58.81-.76,1.53.78.68,1.09-.69,1.52-.76l.35,2.06,1.19.22-.36,1.09c.99.87,1.9,1.41,2.72,2.86,4.61,8.16,9.12,16.22,12.31,25.78,13.54,40.51,10.62,86.26-10.47,124.12-14.39,25.84-33.22,43.42-58.58,59.11-53.17,32.9-118.3,30.21-168.75-6.41-13.31-9.66-27.49-24.48-36.36-39.17-26.76-44.33-32.19-106.46-10.39-155.06C51.71,56.32,98.72,23.53,147.2,16.78l.36.77c.69.04,1.66-1.04,2.35-1.09,1.03-.07,3.31.17,4.75.08,1.8-.11,3.58-.68,5.43-.53l.42.76.23-.71c.26-.23,3.03.57,3.19.56.42-.02,1.03-.78,2.32-.66.75.07.5.86.73.81s.6-.6,1.14-.62c1.02-.05,1.59,1.3,1.91-.15h.76s1.34,1.15,1.34,1.15c-1.04,0-2.06.27-3.04.59-.27.09-1.18.17-.57.57,1.03-.18,2.83-.34,3.7-.77.41-.2.42-.8.83-.99.62-.29,2.33-.39,2.32.62l.22-.73c.96.44,1.69.48,2.63-.04.25,1.22-1.22,1.09-1.9.76l.38,2.67,1.14-.39-.76-.75c1.32-.85,2.39.65,3.57.39.38-.08-.16-1.23,1.46-.36.53.29-.02,1.02,1.44.34-.25.63-.3,1.13.57,1.14.88-.74,1.62-1.46,1.54-2.67.84.29,2.97.41,2.28,1.53l-2.1-.76.37,1.73c1.27-.45,1.58.33,2.68.55l.76-1.14-.38,1.52.76-1.52,1.14.76-.38-1.9h1.12s.4,1.9.4,1.9h-1.14c.54,1.42,2.09-.56,2.49,1.17l1.52-.79c.3.99.72.84,1.71.77l-.19,1.14,3.05-1.14.95,1.14v-1.52s1.14,1.14,1.14,1.14l-.38-1.52.77,1.14,1.13-1.14.38,1.52c-.79-.29-2.27-.14-2.66.76l3.05-.37.18.76.95-1.14v2.28s1.15,0,1.15,0l-.26-.68.61-1.03,1.14-.17.42,2.65c.05.07,1.31-.74,1.42-.87.27-.33-.22-1.16.47-1.03l.18,1.94c1.24.3,1.67.17,2.3,1.49l1.52-1.15-.57,1.52c.96.17.95-1.2,2.11-1.05.19.02.58.41.56.67l-1.14.38,2.28-.37-1.01,1.55-1.65-.41v1.9s.75-.76.75-.76v1.14c.77-.06-.03-1.08,1.08-.46l.67-1.01.92.33v-1.53s1.52,0,1.52,0l-1.14.57c.69.17,1.4,1.49,1.63,1.62.57.32,1.35-.28,1.6.86l2.1-1.91c.15,2.87-2.63,1.57-2.67,3.8l1.14.39-1.72-.36-.18-1.92.76-.38c-.51,0-1.02-.03-1.53,0l-.88-.72c-.73.14-.98.63-1.41,1.1-.47.53-1.02.31-.38,1.52-1.3.19-.71-1.51-1.9-1.14l-.38.76c.03-.26-.05-.63-.27-.76-.71-.43-2.84-1.59-3.55-1.9l1.14-.58-.57-.95-.95.77.38.75c-.54-.24-1.3-.37-1.9-.38l1.52,1.15c-.03.64-.78.22-.99,1.11-.18.76.13,1.22.24,1.92l-4.19-1.9c-.33,1.57.52,1,1.25,1.52.24.17.25.63.36.69.31.18,1.04-.5,1.43.27l-1.52.57c-.1.15,1.69,3.23-.19,2.66l.19-1.14-1.36.35-.73-.75-1.15.77-.57-1.9-.76,1.52-.95-.76-.36.76-2.11-1.15v1.15s-1.91,0-1.91,0l.56-1,.96.24v-1.9s-1.9,0-1.9,0l.38,1.9c-.5-.38-1.1-.03-1.44-.13-.12-.03-.19-1.07-1.98-.25l.76-.57-1.15-.19.39-.76h-1.15s.19,1.9.19,1.9l-1.9-1.54-.41.81c-1.57-.25-2.17-1.45-3.59-.03l-.19-1.14-.76,1.14c-1.09-1.88-3,.01-3.41-1.51l-1.55,1.13-1.71-2.28,2.29-.39c-.29-.89-.13-1.23,0-1.9,0,.22.72.46.9.87.35.8-.61,1.56.43,1.41.79-.55.36-2.53-.56-2.29l.76-.76c.42-.05.87.03,1.29,0,.42.04.27-1.1.23-1.15-.68-.88-.67.99-1.14.76.27-1.39-.74-1.47-1.91-1.52l.76,1.14ZM163.37,18.67c.72.12,1.27-.45,1.14-1.14l-1.14.39v.76ZM174.42,17.53c-.69.13-2.92-.12-2.66,1.14.84.1,2.31-.29,2.66-1.14ZM176.33,18.67l-.57-.75-.95.38.57.75.95-.38ZM187.38,23.25l-1.14,1.52.75-.18.39-1.33ZM195.38,23.25h-1.52s.4.92.4.92l-.78.59,1.9-1.52ZM182.8,24.77c.12-.72-.45-1.26-1.14-1.14v1.14s1.14,0,1.14,0ZM199.57,24.01c-.97-.04-2.99.44-3.05,1.52l-1.13-1.14c-.54.86-.06,1.59.95,1.9.38-.3.45-.88.85-1.15.74-.51,2.03-.43,2.39-1.13ZM191.19,24.39l-2.27.4.29.55-.69.57,2.66-1.52ZM201.1,24.39c-.68-.04-1.63.43-1.91,1.14.68.04,1.63-.43,1.91-1.14ZM210.24,25.91c-.48-1.28-1.58-.76-1.52.38l1.52-.38ZM207.58,29.34c.05-1.3.02-2.8-.96-3.81l-.17,2.49-4.21-.02c1.09.62,1.67.73,1.14,2.09l2.1-1.54c.65-.19.46.68.81.75.2.04.62-.34.92-.16.44.26.35,1.55,2.27.95l-.76-1.52-1.14.76ZM190.42,26.68h-.76s0,1.52,0,1.52h1.14s-.38-1.52-.38-1.52ZM200.72,27.06l-2.29-.38v1.14c.75-.49,2.6.65,2.29-.76ZM206.43,26.68l-1.9,1.14c1.18-.22,1.56.25,1.9-1.14ZM211.01,27.06l-1.9.38v.37c.71.06,1.67.11,1.9-.75ZM174.04,28.21l-1.52-.38.96,1.14h.56s0-.75,0-.75ZM163.75,28.2l-1.9.38.39,1.14,1.52-1.52ZM177.09,28.2l-1.9.19,1.9.95v-1.14ZM185.85,28.2l-2.28.57,2.28.58v-1.14ZM189.66,28.58h-1.14s.95,1.52.95,1.52l.19-1.52ZM191.89,29.04c-.36-.44-2.2-.55-1.84.68h1.53s.19,1.14.19,1.14c1.3-1.49,2.67-.58,1.72,1.15l1.9-.38v1.15s1.91-.39,1.91-.39c.33-1.34-2.41-.68-3.05-1.15l.38-1.89-1.53.38.19-.76h-.95s-.38,1.14-.38,1.14c-.03-.32.11-.85-.07-1.06ZM196.91,30.49l.38-.76-1.52.37c.32-1.07.22-1.81-1.14-1.52l.8.6-.42,1.3h1.91s-.76.76-.76.76h1.52s0-.76,0-.76h-.76ZM175.57,30.11h-1.15c.37,1.2.64,1.32,1.9,1.14l-1.15-.38.39-.76ZM178.18,30.16c-.82-.16-1.28-.27-1.09.71l1.52.37-.43-1.09ZM173.66,30.87l-1.9.38v.37c.71.06,1.67.11,1.9-.75ZM204.91,32.01c-.44-.95-1.91-1.63-2.67-.57l2.67.57ZM192.33,32.02l-1.9.38v.37c.71.06,1.67.11,1.9-.75ZM202.62,32.01h-.75s-.77,1.14-.77,1.14c.71.37,1.99-.66,1.52-1.14ZM206.81,35.06c.47-.49-1.77-2.63-2.28-1.33l2.28,1.33Z"/><path class="cls-1" d="M182.42,27.44l.67.06.09.7c-.47.06-1.51-.02-1.52.76.16-.83-.17-.8.76-1.52Z"/><path class="cls-1" d="M219.77,30.11l-.77.56.4.96.75-.38v1.52s-.68-.19-.68-.19l.31-.57c-1.14.32-1.01-1.06-1.86-.44l-.43-1.1c.78-.21,1.47-.34,2.29-.38Z"/><path class="cls-1" d="M136.31,265.99c4.26,1.32,8.78,3.59,13.25,4.09,2.62.3,8.31-.52,10.08.21.67.27,2.1,1.75,2.14,2.44.03.48-.56.82-.61,1.18-.08.52.23.97.17,1.36-.13.8-1.12,1.49-.42,2.94l-1.36.38.75,2.65c-.43,0-1.09,0-1.35.36-.23.32-.8,3.52-1.42,4.69-.71,1.35-2.47,3.87-4.19,3.27-6.76-2.75-15.16-6.3-22.57-5.64-4.4.39-6.99,3.57-8.15-2.53-.71-3.72-1.08-10.37.61-13.77.29-.58,3.24-3.93,3.76-4.24,2.41-1.44,2.31.29,4.03-3.22,5.9-12.03,4.79-32.59-.94-44.54-3.2-6.68-10.77-14.59-8.46-22.79.98-3.5,3.69-6.49,6.84-3.03,4.23,4.65,10.63,31.59,11.59,38.71,1.75,12.88.96,25.31-3.76,37.48Z"/><path class="cls-1" d="M217.37,199.42c.52.72.28,1.93.52,2.66.11.34.75.29.76.49.02.71-2.04,3.95-2.68,4.57-5.11,4.94-14.06,5.4-19.82,12.57-5.28,6.58-7.98,20.76,3.99,20.92,4.48.06,10.94-4.15,14.09.99,2.13,3.49,1.35,7.98.3,11.71-3.38,11.99-24.18,32.09-35.4,37.38-3.75,1.77-10.93,5.21-10.01-2.01.56-4.36,2.27-9.35,6.32-11.58s5.5.68,8.56.48c4.41-.28,13.58-8.93,16.53-12.36,1.04-1.21,7.08-9.37,6.28-10.29-4.63-1.3-8.68,1.83-13.33.18-9.24-3.29-7.87-22.37-5.92-29.91,2.5-9.66,9.84-22.09,19.64-25.71,2.17-.8,8.6-2.24,10.16-.08Z"/><path class="cls-1" d="M253.64,165.72c-.33.21-1.12.08-1.48-.14-.71-.43-2.17-6.45-2.28-7.63-.42-4.36,1.54-5.86,2.18-9.62.81-4.67.67-14.26-2.19-18.19-1.45-1.99-4.07-2.75-5.53-4.76-1.09,4.52-2.1,9.04-3.71,13.43-1.36,3.7-5.92,14.17-8.64,16.51-.5.43-1.27.84-1.95.75-1.36-.64-2.06-7.95-1.89-9.54.44-3.99,3.83-4.78,5.88-7.07,6.89-7.69,6.37-26.67,3.65-36-1.44-4.95-5.41-10.83-4.49-15.91.6-3.31,2.42-1.98,3.64-2.65.88-.48,1.09-2.84,4.17-3.63,6.09-1.56,13.61,2.87,16.18,8.4,4.61,9.97,1.17,21.26-4.11,30.19,5.32,12.36,5.74,26.57,3.87,39.64l-3.31,6.23ZM254.71,96.14c-1.72-2.18-6.59-1.99-8.91-.94-1.41.64-2.35,2.12-3.93,2.38l2.36,11.33c7.77,3.28,11.73-4.3,10.97-11.17-.07-.6-.11-1.1-.5-1.6Z"/><path class="cls-1" d="M170.23,215.69v9.15c2.41-2.32,10.92-2.19,11.73,1.41,1.58,6.98-6.13,13.91-12.84,13.49l-2.33,10.81c0,.73,7.32.67,8.22.6,2.22-.16,8.74-2.57,9.3.2.44,2.2-2.8,10.09-5.16,11.11-6.05-.97-11.9.18-17.68,1.82-1.52.43-3.03,1.65-4.6,1.18-.92-.69-.87-8.39-.64-9.85.58-3.68,3.75-5.47,5.41-8.31,2.91-4.97,5.32-20.81,3.86-26.29-.79-2.96-3.4-6.23-3.92-9.8s.21-7.81,3.42-9.7c4.42-.69,8.94-1.13,13.25-2.39,3.06-.9,8.95-4.31,11.63-4.03,3.11.32,2.53,5.84,1.9,8.04-2.46,8.61-14.76,9.17-21.54,12.57Z"/><path class="cls-1" d="M278.07,206.55c1.09-4.65-.64-9.35,1.2-13.85,1.57-3.84,5.06-5.65,6.99-1,2.6,6.28-1.82,21.06-3.8,27.81-3.61,12.26-10.34,28.86-20.38,37.16-6.15,5.09-6.73.85-6.1-5.34.56-5.49,4.7-6.61,7.81-10.1,4.48-5.01,8-13.32,10.11-19.61-2.92-4.21-7.23-7.09-11.48-9.9-3.67-2.43-7.2-3.1-9.19-7.57s-3.4-13.73,4.25-12.25c6.51,5.36,12.43,11.77,20.59,14.65Z"/><path class="cls-1" d="M223.58,227.51c-5.3,1.99-13.2,7.25-18.86,7.24-3.46,0-3.54-4.64-3.39-7.29.57-10.12,10.96-7.81,18.07-10.04,5.34-1.68,16.69-8.05,19.43-12.96.83-1.49,1.15-4.19,2.84-5.16,3.71-2.16,3.28,1.34,3.66,3.62.11.67.72.94.68,1.82-.2,4.76-3.5,8.93-6.79,11.93-2.74,2.49-5.81,4.65-8.73,6.92-.2.63.3,1.28.27,1.84-.67,11.69-1.67,25.41-4.3,36.78-.76,3.28-2.27,6.25-4.57,8.76-.6.65-1.29,1.63-2.28,1.52-1.1-.29-1.08-7.01-.96-8.19.18-1.83,1.12-3.41,1.41-5.06,1.74-9.66,2.7-19.48,3.14-29.25.04-.88.39-1.61.39-2.46Z"/><path class="cls-1" d="M255.19,215.34c1.31,5.68-3.18,11.09-7.22,14.65-1.51,1.33-6.09,4.05-6.68,5.51-.28.7-.86,4.63-.56,4.96,1.93-.47,4.31-1.87,6.3-1.92.76-.02,3.77.75,3.62,1.71-.41,2.64-8.37,6.95-10.71,8.37l-.57,4.81c1.18,1.64,8.4-2.1,10.64-1.56,2.19,3.96-2.2,6.78-4.52,9.15-1.85,1.89-8.13,8.75-10.07,9.37-1.21.38-2,.31-2.6-.87-3.28-6.39,2.66-19.56,2.61-26.98-.02-2.77-1.63-2.58-2.27-4.99-.16-.61-1.03-6.85-1.02-7.21.03-.64,2.02-5.08,2.49-5.72,1.57-2.13,5.06-2.37,7.39-3.28,3.19-1.26,7.94-5.09,10.52-5.87.87-.26,1.78-.23,2.67-.15Z"/><path class="cls-1" d="M148.89,222.55c.75-1.25.97-2.92,1.14-4.38.28-2.43.56-6.37.4-8.77-.26-4.09-3.02-8.21-1.1-11.93,2.89-1.78,5.04,6.35,5.24,8.17.52,4.88-.27,14.95-5.68,16.91Z"/><path class="cls-1" d="M267.79,104.42h-1.52s.38,1.14.38,1.14l-2.28-1.14,2.86,2.68c-.2,1.48-.05,2.42.94,3.62l-1.04.73.68,3.44-.78.43c.75,3.46-1.31,6.41-3.51,1.97-.34-.67-.81-2.09-1.2-2.99-2.07-4.87-2.48-7.2.18-12.11.98-.26,1.68.16,2.25.91-.85.05-1,.7-.18.95.66.2.46-1.35,2.09-.38-.62-.92-2.02-1.28-1.9-2.66,1.64.28,2.84,1.84,3.05,3.43Z"/><path class="cls-1" d="M293.99,129.1c-.24.25-.75.34-1.1.28-2.53-.42-10.23-8.26-12.91-10.3-.38-.29-.48-.74-1.14-.57l.76,14.48c1.02-.09,1.82.12,2.76.48,2.61,1.02,9.93,6.81,10.7,9.49.61,2.11.1,9.79-2.69,10.17-1.07.14-9.06-5.28-10.77-6.05l-.33,14.62c.16.48,3.99,1.36,5.04,1.82,2.72,1.19,10.13,5.62,10.13,8.9-1.17,2.76-1.67,5.82-2.85,8.57-.88,2.05-1.22,2.4-3.19.92-3.24-2.43-5.55-6.69-10.72-5.31-3.28.88-4.05,5.44-5.97-.86-.98-3.21-1.72-7.84-.56-11.01,1.42-3.88,2.77-3.92,3.45-9.12,1.42-10.8,1.54-27.06-1.21-37.57-1-3.83-2.98-6.5-2.51-10.74.28-2.54,1.39-5.82,4.52-5,5.96,5.22,17.05,12.86,19.34,20.69.29,1-.19,5.5-.75,6.1Z"/><path class="cls-1" d="M255.74,170.47c.72-1.18,3.05-2.41,4.12-4.05,2.92-4.47,4.19-14.22,3.69-19.46-.59-6.18-5.6-12.72-4.05-19.4.88-3.78,4.94-8.23,7.68-3.28,3.54,6.4,2.27,27.54.89,35.09-.67,3.63-1.9,7.73-3.37,11.11-.98,2.24-6.04,11.91-8.86,11.27-2.21-2.67-1.8-8.47-.08-11.27Z"/><path class="cls-1" d="M288.36,78.5c-.5,1.54.75,1.16.76,2.29l-4.96.77.2,1.52c-1.69-1.53.96-2.06.19-3.04l1.52.76c-.44-.84,1.93-2.93,2.29-2.29Z"/><path class="cls-1" d="M290.27,78.13l-.76.57.76,1.14c-.69.7-1.12-.62-1.51-1.15l1.51-.57Z"/><polygon class="cls-1" points="283.03 80.03 284.18 78.51 284.93 79.08 283.03 80.03"/><polygon class="cls-1" points="288.36 93.75 287.32 93.55 287.53 93.17 286.84 92.61 288.36 93.75"/><polygon class="cls-1" points="221.67 33.92 221.1 35.06 220.16 34.29 220.15 33.92 221.67 33.92"/><polygon class="cls-1" points="256.7 47.22 255.21 47.63 256.36 46.11 256.7 47.22"/><polygon class="cls-1" points="237.3 37.35 236.92 39.63 236.54 39.63 236.54 37.35 237.3 37.35"/><path class="cls-1" d="M225.08,37.38c-.18,1.14,1.13.32,1.17,1.11-1.27.18-1.54.06-1.9-1.14l.74.03Z"/><path class="cls-1" d="M233.49,45.35v-.75c1.1,0,.49-1.47,1.51-.2l-1.51.95Z"/><polygon class="cls-1" points="196.14 19.06 196.14 19.43 194.24 19.43 194.24 18.67 196.14 19.06"/><path class="cls-1" d="M199.57,20.96h-1.14s.38-1.52.38-1.52c.79.13.45.93.76,1.52Z"/><polygon class="cls-1" points="261.69 53.35 261.69 54.11 260.17 54.11 260.17 53.35 261.69 53.35"/><path class="cls-1" d="M217.1,34.3c.14.62-.44.18-.68.57-.05.08.37.9-.46.95v-1.33s1.14-.19,1.14-.19Z"/><polygon class="cls-1" points="190.04 17.91 190.04 18.48 189.29 19.05 188.9 17.92 190.04 17.91"/><polygon class="cls-1" points="227.35 31.97 226.25 32.39 226.26 31.65 227.02 30.87 227.39 30.87 227.35 31.97"/><path class="cls-1" d="M218.24,32.78v.37s-1.9.38-1.9.38c.23-.86,1.19-.81,1.9-.75Z"/><polygon class="cls-1" points="258.64 58.69 257.88 58.68 258.26 57.16 259.01 57.73 258.64 58.69"/></svg>